<svg width="55" height="34" viewBox="0 0 55 34" fill="none" xmlns="http://www.w3.org/2000/svg">
<ellipse cx="20" cy="17" rx="12" ry="12" transform="rotate(-90 20 17)" fill="#948782"/>
<ellipse cx="14" cy="29" rx="5" ry="6" transform="rotate(-90 14 29)" fill="#948782"/>
<ellipse cx="6" cy="22" rx="5" ry="6" transform="rotate(-90 6 22)" fill="#948782"/>
<ellipse cx="6" cy="12" rx="5" ry="6" transform="rotate(-90 6 12)" fill="#948782"/>
<ellipse cx="14" cy="5" rx="5" ry="6" transform="rotate(-90 14 5)" fill="#948782"/>
<path d="M22.2857 24.2727L22.2857 8.72728L47.1169 8.72728C50.9829 8.72728 54.1169 11.8613 54.1169 15.7273V17.2727C54.1169 21.1387 50.9829 24.2727 47.1169 24.2727L22.2857 24.2727Z" fill="#948782"/>
<ellipse cx="13.5" cy="29" rx="2" ry="3.5" transform="rotate(-90 13.5 29)" fill="#FAD2D2"/>
<ellipse cx="5" cy="22" rx="2" ry="3" transform="rotate(-90 5 22)" fill="#FAD2D2"/>
<ellipse cx="16.5" cy="17" rx="5" ry="4.5" transform="rotate(-90 16.5 17)" fill="#FAD2D2"/>
<ellipse cx="5" cy="12" rx="2" ry="3" transform="rotate(-90 5 12)" fill="#FAD2D2"/>
<ellipse cx="13.5" cy="4" rx="2" ry="3.5" transform="rotate(-90 13.5 4)" fill="#FAD2D2"/>
<ellipse cx="20.5" cy="17" rx="8" ry="4.5" transform="rotate(-90 20.5 17)" fill="#FAD2D2"/>
</svg>
